<?xml version="1.0" encoding="UTF-8"?>
<svg xmlns="http://www.w3.org/2000/svg" viewBox="0 0 850.39 566.93">
  <g id="a" data-name="レイヤー 2">
    <rect width="850.39" height="566.93" style="fill: #fff;"/>
  </g>
  <g id="b" data-name="レイヤー 1">
    <path d="M640.4,9.41h4v3c-28.32,44.84-50.18,93.55-109,107v4c25.93,16.61,49.76,34.7,68,59h4c15.09-13.4,43.65-32.25,65-37v3c-8.68,22.41-11.97,56.08-5,83,3.46,13.38,16.03,30.35,15,43-29.26-17.15-55.51-36.76-91-49-90.63-31.26-173.41,29.46-240,46-60.43,15.01-165.98-16.83-180-51l11,1h37c23.35-3.82,47.15-7.1,66-18,37.66-21.77,53.74-58.78,80-92,20.25-25.61,42-48.11,70-66,35.11-22.44,81.67-21.2,131-29l74-7Z" style="fill: #db3c38; fill-rule: evenodd;"/>
    <path d="M166.4,280.41c25.93,2.59,43.17,14.71,62,24,11.84,5.84,26.62,6.4,40,10,39.79,10.71,82.84-16.1,106-25,12.33-3,24.67-6,37-9,40.68-10.97,79.71,22.68,112,28,31.99,5.26,52-13.5,72-22,30.28-12.86,75.18-.25,92,14l-1,38c-21.21-3.93-37.98-23.39-68-16-30.86,7.6-56.64,36.54-100,28-31.52-6.21-68.91-37.56-107-29-48.34,10.87-85.69,45.15-155,32-36.14-6.86-56.08-26.07-91-33-1.38-9.81-2.91-29.71,1-40Z" style="fill: #3789b4; fill-rule: evenodd;"/>
    <path d="M166.4,344.41c25.93,2.59,43.17,14.71,62,24,11.84,5.84,26.62,6.4,40,10,39.79,10.71,82.84-16.1,106-25l37-9c40.68-10.97,79.71,22.68,112,28,31.99,5.26,52-13.5,72-22,30.28-12.86,75.18-.25,92,14l-1,38c-21.21-3.93-37.98-23.39-68-16-30.86,7.6-56.64,36.54-100,28-31.52-6.21-68.91-37.56-107-29-48.34,10.87-85.69,45.15-155,32-36.14-6.86-56.08-26.07-91-33-1.38-9.81-2.91-29.71,1-40Z" style="fill: #3789b4; fill-rule: evenodd;"/>
    <path d="M267.4,74.41c29.27,0,53,23.73,53,53s-23.73,53-53,53-53-23.73-53-53,23.73-53,53-53Z" style="fill: #db3c38; fill-rule: evenodd;"/>
    <path d="M231.93,554.73h33.6l-38.4-62.4,36.9-42.6h-34.35l-24.15,30.3c-4.65,5.7-9.6,12-9.75,12.15h-.6v-42.45h-28.8v105h28.8v-28.95l10.8-12.3,25.95,41.25h0Z" style="fill: #18264c;"/>
    <path d="M282.03,502.23c0,31.95,23.1,54.6,55.65,54.6s55.65-22.65,55.65-54.6-23.1-54.6-55.65-54.6-55.65,22.65-55.65,54.6h0ZM310.98,502.23c0-16.65,11.1-27.45,26.7-27.45s26.7,10.8,26.7,27.45-11.1,27.45-26.7,27.45-26.7-10.8-26.7-27.45Z" style="fill: #18264c;"/>
    <path d="M488.58,515.73c-3.45,7.2-10.65,13.95-23.4,13.95-14.4,0-24.15-10.95-24.15-27.45s9.15-27.45,24.15-27.45c8.25,0,16.5,2.55,22.2,11.25l28.5-7.65c-7.05-17.4-25.05-30.75-49.2-30.75-31.5,0-54.6,22.65-54.6,54.3s23.1,54.9,54.6,54.9c22.95,0,42.45-12.9,50.25-33.6l-28.35-7.5Z" style="fill: #18264c;"/>
    <path d="M603.03,554.73h28.8v-105h-28.8v38.25h-35.55v-38.25h-28.8v105h28.8v-39.15h35.55v39.15Z" style="fill: #18264c;"/>
    <path d="M658.08,554.73h28.8v-105h-28.8v105h0Z" style="fill: #18264c;"/>
  </g>
</svg>